<mxfile host="app.diagrams.net" modified="2024-04-26T13:08:05.411Z" agent="Mozilla/5.0 (Windows NT 10.0; Win64; x64) AppleWebKit/537.36 (KHTML, like Gecko) Chrome/124.0.0.0 Safari/537.36 Edg/124.0.0.0" etag="qPkopviyJc7F_aFpCDb7" version="24.3.0" type="google">
  <diagram name="Page-1" id="KvbS0wVHSsjGiEiv5p9M">
    <mxGraphModel grid="1" page="1" gridSize="10" guides="1" tooltips="1" connect="1" arrows="1" fold="1" pageScale="1" pageWidth="850" pageHeight="1100" math="0" shadow="0">
      <root>
        <mxCell id="0" />
        <mxCell id="1" parent="0" />
        <mxCell id="reQVT0hsvFGg_UGcOgHD-4" value="" style="edgeStyle=orthogonalEdgeStyle;rounded=0;orthogonalLoop=1;jettySize=auto;html=1;" edge="1" parent="1">
          <mxGeometry relative="1" as="geometry">
            <mxPoint x="-10.5" y="100" as="sourcePoint" />
            <mxPoint x="-10.5" y="150" as="targetPoint" />
          </mxGeometry>
        </mxCell>
        <mxCell id="reQVT0hsvFGg_UGcOgHD-3" style="edgeStyle=orthogonalEdgeStyle;rounded=0;orthogonalLoop=1;jettySize=auto;html=1;" edge="1" parent="1">
          <mxGeometry relative="1" as="geometry">
            <mxPoint x="-11" y="250" as="targetPoint" />
            <mxPoint x="-11" y="290" as="sourcePoint" />
          </mxGeometry>
        </mxCell>
        <mxCell id="5fWlX3JE9l-hxD3MrzJK-3" value="Authentication" style="swimlane;whiteSpace=wrap;html=1;" vertex="1" parent="1">
          <mxGeometry x="250" y="-110" width="200" height="360" as="geometry" />
        </mxCell>
        <mxCell id="5fWlX3JE9l-hxD3MrzJK-4" value="Register" style="ellipse;whiteSpace=wrap;html=1;" vertex="1" parent="5fWlX3JE9l-hxD3MrzJK-3">
          <mxGeometry x="40" y="50" width="120" height="60" as="geometry" />
        </mxCell>
        <mxCell id="5fWlX3JE9l-hxD3MrzJK-5" value="Login" style="ellipse;whiteSpace=wrap;html=1;" vertex="1" parent="5fWlX3JE9l-hxD3MrzJK-3">
          <mxGeometry x="40" y="120" width="120" height="60" as="geometry" />
        </mxCell>
        <mxCell id="5fWlX3JE9l-hxD3MrzJK-7" value="Logout" style="ellipse;whiteSpace=wrap;html=1;" vertex="1" parent="5fWlX3JE9l-hxD3MrzJK-3">
          <mxGeometry x="40" y="200" width="120" height="60" as="geometry" />
        </mxCell>
        <mxCell id="5fWlX3JE9l-hxD3MrzJK-6" value="My Info" style="ellipse;whiteSpace=wrap;html=1;" vertex="1" parent="5fWlX3JE9l-hxD3MrzJK-3">
          <mxGeometry x="40" y="280" width="120" height="60" as="geometry" />
        </mxCell>
        <mxCell id="5fWlX3JE9l-hxD3MrzJK-8" value="Account" style="swimlane;whiteSpace=wrap;html=1;" vertex="1" parent="1">
          <mxGeometry x="250" y="320" width="200" height="330" as="geometry" />
        </mxCell>
        <mxCell id="dQ3kgNnosDi3D1WKe7WN-10" value="Send OTP" style="ellipse;whiteSpace=wrap;html=1;" vertex="1" parent="5fWlX3JE9l-hxD3MrzJK-8">
          <mxGeometry x="40" y="60" width="120" height="60" as="geometry" />
        </mxCell>
        <mxCell id="dQ3kgNnosDi3D1WKe7WN-11" value="Verify Account" style="ellipse;whiteSpace=wrap;html=1;" vertex="1" parent="5fWlX3JE9l-hxD3MrzJK-8">
          <mxGeometry x="40" y="150" width="120" height="60" as="geometry" />
        </mxCell>
        <mxCell id="dQ3kgNnosDi3D1WKe7WN-12" value="Delete Account" style="ellipse;whiteSpace=wrap;html=1;" vertex="1" parent="5fWlX3JE9l-hxD3MrzJK-8">
          <mxGeometry x="40" y="240" width="120" height="60" as="geometry" />
        </mxCell>
        <mxCell id="dQ3kgNnosDi3D1WKe7WN-2" value="Guest" style="shape=umlActor;verticalLabelPosition=bottom;verticalAlign=top;html=1;outlineConnect=0;" vertex="1" parent="1">
          <mxGeometry x="760" y="210" width="30" height="60" as="geometry" />
        </mxCell>
        <mxCell id="dQ3kgNnosDi3D1WKe7WN-6" style="edgeStyle=orthogonalEdgeStyle;rounded=0;orthogonalLoop=1;jettySize=auto;html=1;exitX=0.5;exitY=0;exitDx=0;exitDy=0;entryX=1;entryY=0.5;entryDx=0;entryDy=0;" edge="1" parent="1" source="dQ3kgNnosDi3D1WKe7WN-5" target="5fWlX3JE9l-hxD3MrzJK-4">
          <mxGeometry relative="1" as="geometry" />
        </mxCell>
        <mxCell id="dQ3kgNnosDi3D1WKe7WN-14" style="edgeStyle=orthogonalEdgeStyle;rounded=0;orthogonalLoop=1;jettySize=auto;html=1;exitX=0.5;exitY=1;exitDx=0;exitDy=0;entryX=1;entryY=0.5;entryDx=0;entryDy=0;" edge="1" parent="1" source="dQ3kgNnosDi3D1WKe7WN-5" target="dQ3kgNnosDi3D1WKe7WN-11">
          <mxGeometry relative="1" as="geometry" />
        </mxCell>
        <mxCell id="reQVT0hsvFGg_UGcOgHD-26" style="edgeStyle=orthogonalEdgeStyle;rounded=0;orthogonalLoop=1;jettySize=auto;html=1;exitX=0.5;exitY=1;exitDx=0;exitDy=0;entryX=1;entryY=0.5;entryDx=0;entryDy=0;" edge="1" parent="1" source="dQ3kgNnosDi3D1WKe7WN-5" target="reQVT0hsvFGg_UGcOgHD-16">
          <mxGeometry relative="1" as="geometry" />
        </mxCell>
        <mxCell id="reQVT0hsvFGg_UGcOgHD-27" style="edgeStyle=orthogonalEdgeStyle;rounded=0;orthogonalLoop=1;jettySize=auto;html=1;exitX=0.5;exitY=1;exitDx=0;exitDy=0;entryX=1;entryY=0.5;entryDx=0;entryDy=0;" edge="1" parent="1" source="dQ3kgNnosDi3D1WKe7WN-5" target="reQVT0hsvFGg_UGcOgHD-17">
          <mxGeometry relative="1" as="geometry" />
        </mxCell>
        <mxCell id="dQ3kgNnosDi3D1WKe7WN-5" value="" style="swimlane;startSize=0;" vertex="1" parent="1">
          <mxGeometry x="730" y="200" width="90" height="100" as="geometry" />
        </mxCell>
        <mxCell id="dQ3kgNnosDi3D1WKe7WN-13" style="edgeStyle=orthogonalEdgeStyle;rounded=0;orthogonalLoop=1;jettySize=auto;html=1;exitX=0.5;exitY=1;exitDx=0;exitDy=0;entryX=0.997;entryY=0.62;entryDx=0;entryDy=0;entryPerimeter=0;" edge="1" parent="1" source="dQ3kgNnosDi3D1WKe7WN-5" target="dQ3kgNnosDi3D1WKe7WN-10">
          <mxGeometry relative="1" as="geometry" />
        </mxCell>
        <mxCell id="reQVT0hsvFGg_UGcOgHD-1" value="Registered User" style="shape=umlActor;verticalLabelPosition=bottom;verticalAlign=top;html=1;outlineConnect=0;" vertex="1" parent="1">
          <mxGeometry x="-26" y="160" width="30" height="60" as="geometry" />
        </mxCell>
        <mxCell id="reQVT0hsvFGg_UGcOgHD-5" value="" style="swimlane;startSize=0;" vertex="1" parent="1">
          <mxGeometry x="-51" y="10" width="80" height="90" as="geometry" />
        </mxCell>
        <mxCell id="5fWlX3JE9l-hxD3MrzJK-2" value="User" style="shape=umlActor;verticalLabelPosition=bottom;verticalAlign=top;html=1;outlineConnect=0;" vertex="1" parent="reQVT0hsvFGg_UGcOgHD-5">
          <mxGeometry x="25" y="10" width="30" height="60" as="geometry" />
        </mxCell>
        <mxCell id="reQVT0hsvFGg_UGcOgHD-8" style="edgeStyle=orthogonalEdgeStyle;rounded=0;orthogonalLoop=1;jettySize=auto;html=1;exitX=1;exitY=0.5;exitDx=0;exitDy=0;entryX=0;entryY=0.5;entryDx=0;entryDy=0;" edge="1" parent="1" source="reQVT0hsvFGg_UGcOgHD-6" target="5fWlX3JE9l-hxD3MrzJK-6">
          <mxGeometry relative="1" as="geometry" />
        </mxCell>
        <mxCell id="reQVT0hsvFGg_UGcOgHD-10" style="edgeStyle=orthogonalEdgeStyle;rounded=0;orthogonalLoop=1;jettySize=auto;html=1;exitX=1;exitY=0.5;exitDx=0;exitDy=0;entryX=0;entryY=0.5;entryDx=0;entryDy=0;" edge="1" parent="1" source="reQVT0hsvFGg_UGcOgHD-6" target="5fWlX3JE9l-hxD3MrzJK-7">
          <mxGeometry relative="1" as="geometry" />
        </mxCell>
        <mxCell id="reQVT0hsvFGg_UGcOgHD-11" style="edgeStyle=orthogonalEdgeStyle;rounded=0;orthogonalLoop=1;jettySize=auto;html=1;exitX=1;exitY=0.5;exitDx=0;exitDy=0;entryX=0;entryY=0.5;entryDx=0;entryDy=0;" edge="1" parent="1" source="reQVT0hsvFGg_UGcOgHD-6" target="5fWlX3JE9l-hxD3MrzJK-5">
          <mxGeometry relative="1" as="geometry" />
        </mxCell>
        <mxCell id="reQVT0hsvFGg_UGcOgHD-21" style="edgeStyle=orthogonalEdgeStyle;rounded=0;orthogonalLoop=1;jettySize=auto;html=1;exitX=1;exitY=0.5;exitDx=0;exitDy=0;entryX=0;entryY=0.5;entryDx=0;entryDy=0;" edge="1" parent="1" source="reQVT0hsvFGg_UGcOgHD-6" target="reQVT0hsvFGg_UGcOgHD-16">
          <mxGeometry relative="1" as="geometry">
            <Array as="points">
              <mxPoint x="140" y="200" />
              <mxPoint x="140" y="785" />
            </Array>
          </mxGeometry>
        </mxCell>
        <mxCell id="reQVT0hsvFGg_UGcOgHD-22" style="edgeStyle=orthogonalEdgeStyle;rounded=0;orthogonalLoop=1;jettySize=auto;html=1;exitX=1;exitY=0.5;exitDx=0;exitDy=0;entryX=0;entryY=0.5;entryDx=0;entryDy=0;" edge="1" parent="1" source="reQVT0hsvFGg_UGcOgHD-6" target="reQVT0hsvFGg_UGcOgHD-17">
          <mxGeometry relative="1" as="geometry">
            <Array as="points">
              <mxPoint x="140" y="200" />
              <mxPoint x="140" y="885" />
            </Array>
          </mxGeometry>
        </mxCell>
        <mxCell id="reQVT0hsvFGg_UGcOgHD-36" style="edgeStyle=orthogonalEdgeStyle;rounded=0;orthogonalLoop=1;jettySize=auto;html=1;exitX=1;exitY=0.5;exitDx=0;exitDy=0;entryX=0;entryY=0.5;entryDx=0;entryDy=0;" edge="1" parent="1" source="reQVT0hsvFGg_UGcOgHD-6" target="reQVT0hsvFGg_UGcOgHD-28">
          <mxGeometry relative="1" as="geometry">
            <Array as="points">
              <mxPoint x="140" y="200" />
              <mxPoint x="140" y="-380" />
            </Array>
          </mxGeometry>
        </mxCell>
        <mxCell id="reQVT0hsvFGg_UGcOgHD-37" style="edgeStyle=orthogonalEdgeStyle;rounded=0;orthogonalLoop=1;jettySize=auto;html=1;exitX=1;exitY=0.5;exitDx=0;exitDy=0;entryX=0;entryY=0.5;entryDx=0;entryDy=0;" edge="1" parent="1" source="reQVT0hsvFGg_UGcOgHD-6" target="5fWlX3JE9l-hxD3MrzJK-8">
          <mxGeometry relative="1" as="geometry">
            <Array as="points">
              <mxPoint x="140" y="200" />
              <mxPoint x="140" y="485" />
            </Array>
          </mxGeometry>
        </mxCell>
        <mxCell id="reQVT0hsvFGg_UGcOgHD-6" value="" style="swimlane;startSize=0;" vertex="1" parent="1">
          <mxGeometry x="-60" y="150" width="100" height="100" as="geometry" />
        </mxCell>
        <mxCell id="reQVT0hsvFGg_UGcOgHD-23" style="edgeStyle=orthogonalEdgeStyle;rounded=0;orthogonalLoop=1;jettySize=auto;html=1;exitX=1;exitY=0.5;exitDx=0;exitDy=0;entryX=0;entryY=0.5;entryDx=0;entryDy=0;" edge="1" parent="1" source="reQVT0hsvFGg_UGcOgHD-7" target="reQVT0hsvFGg_UGcOgHD-18">
          <mxGeometry relative="1" as="geometry">
            <Array as="points">
              <mxPoint x="29" y="365" />
              <mxPoint x="100" y="365" />
              <mxPoint x="100" y="970" />
            </Array>
          </mxGeometry>
        </mxCell>
        <mxCell id="reQVT0hsvFGg_UGcOgHD-24" style="edgeStyle=orthogonalEdgeStyle;rounded=0;orthogonalLoop=1;jettySize=auto;html=1;exitX=1;exitY=0.5;exitDx=0;exitDy=0;entryX=0;entryY=0.5;entryDx=0;entryDy=0;" edge="1" parent="1" source="reQVT0hsvFGg_UGcOgHD-7" target="reQVT0hsvFGg_UGcOgHD-19">
          <mxGeometry relative="1" as="geometry">
            <Array as="points">
              <mxPoint x="29" y="365" />
              <mxPoint x="100" y="365" />
              <mxPoint x="100" y="1070" />
            </Array>
          </mxGeometry>
        </mxCell>
        <mxCell id="reQVT0hsvFGg_UGcOgHD-25" style="edgeStyle=orthogonalEdgeStyle;rounded=0;orthogonalLoop=1;jettySize=auto;html=1;exitX=1;exitY=0.5;exitDx=0;exitDy=0;entryX=0;entryY=0.5;entryDx=0;entryDy=0;" edge="1" parent="1" source="reQVT0hsvFGg_UGcOgHD-7" target="reQVT0hsvFGg_UGcOgHD-20">
          <mxGeometry relative="1" as="geometry">
            <Array as="points">
              <mxPoint x="29" y="365" />
              <mxPoint x="100" y="365" />
              <mxPoint x="100" y="1170" />
            </Array>
          </mxGeometry>
        </mxCell>
        <mxCell id="reQVT0hsvFGg_UGcOgHD-7" value="" style="swimlane;startSize=0;" vertex="1" parent="1">
          <mxGeometry x="-51" y="290" width="80" height="90" as="geometry" />
        </mxCell>
        <mxCell id="5fWlX3JE9l-hxD3MrzJK-1" value="Admin" style="shape=umlActor;verticalLabelPosition=bottom;verticalAlign=top;html=1;outlineConnect=0;" vertex="1" parent="reQVT0hsvFGg_UGcOgHD-7">
          <mxGeometry x="25" y="10" width="30" height="60" as="geometry" />
        </mxCell>
        <mxCell id="reQVT0hsvFGg_UGcOgHD-15" value="massage&lt;span style=&quot;background-color: initial;&quot;&gt;Shops&lt;/span&gt;" style="swimlane;whiteSpace=wrap;html=1;" vertex="1" parent="1">
          <mxGeometry x="230" y="680" width="250" height="540" as="geometry" />
        </mxCell>
        <mxCell id="reQVT0hsvFGg_UGcOgHD-16" value="get all massage shops" style="ellipse;whiteSpace=wrap;html=1;" vertex="1" parent="reQVT0hsvFGg_UGcOgHD-15">
          <mxGeometry x="60" y="70" width="120" height="70" as="geometry" />
        </mxCell>
        <mxCell id="reQVT0hsvFGg_UGcOgHD-17" value="get single massage shop" style="ellipse;whiteSpace=wrap;html=1;" vertex="1" parent="reQVT0hsvFGg_UGcOgHD-15">
          <mxGeometry x="60" y="170" width="120" height="70" as="geometry" />
        </mxCell>
        <mxCell id="reQVT0hsvFGg_UGcOgHD-18" value="create massage shop" style="ellipse;whiteSpace=wrap;html=1;" vertex="1" parent="reQVT0hsvFGg_UGcOgHD-15">
          <mxGeometry x="60" y="260" width="120" height="60" as="geometry" />
        </mxCell>
        <mxCell id="reQVT0hsvFGg_UGcOgHD-19" value="update massage shop" style="ellipse;whiteSpace=wrap;html=1;" vertex="1" parent="reQVT0hsvFGg_UGcOgHD-15">
          <mxGeometry x="60" y="360" width="120" height="60" as="geometry" />
        </mxCell>
        <mxCell id="reQVT0hsvFGg_UGcOgHD-20" value="delete massage shop" style="ellipse;whiteSpace=wrap;html=1;" vertex="1" parent="reQVT0hsvFGg_UGcOgHD-15">
          <mxGeometry x="60" y="460" width="120" height="60" as="geometry" />
        </mxCell>
        <mxCell id="reQVT0hsvFGg_UGcOgHD-28" value="reservations" style="swimlane;whiteSpace=wrap;html=1;" vertex="1" parent="1">
          <mxGeometry x="230" y="-590" width="235" height="420" as="geometry" />
        </mxCell>
        <mxCell id="reQVT0hsvFGg_UGcOgHD-29" value="get all reservations" style="ellipse;whiteSpace=wrap;html=1;" vertex="1" parent="reQVT0hsvFGg_UGcOgHD-28">
          <mxGeometry x="57.5" y="50" width="120" height="60" as="geometry" />
        </mxCell>
        <mxCell id="reQVT0hsvFGg_UGcOgHD-30" value="get single reservation" style="ellipse;whiteSpace=wrap;html=1;" vertex="1" parent="reQVT0hsvFGg_UGcOgHD-28">
          <mxGeometry x="57.5" y="120" width="120" height="60" as="geometry" />
        </mxCell>
        <mxCell id="reQVT0hsvFGg_UGcOgHD-31" value="add reservation" style="ellipse;whiteSpace=wrap;html=1;" vertex="1" parent="reQVT0hsvFGg_UGcOgHD-28">
          <mxGeometry x="57.5" y="190" width="120" height="60" as="geometry" />
        </mxCell>
        <mxCell id="reQVT0hsvFGg_UGcOgHD-32" value="update reservation" style="ellipse;whiteSpace=wrap;html=1;" vertex="1" parent="reQVT0hsvFGg_UGcOgHD-28">
          <mxGeometry x="57.5" y="260" width="120" height="60" as="geometry" />
        </mxCell>
        <mxCell id="reQVT0hsvFGg_UGcOgHD-33" value="delete reservation" style="ellipse;whiteSpace=wrap;html=1;" vertex="1" parent="reQVT0hsvFGg_UGcOgHD-28">
          <mxGeometry x="57.5" y="330" width="120" height="60" as="geometry" />
        </mxCell>
        <mxCell id="reQVT0hsvFGg_UGcOgHD-41" value="Nodemailer" style="shape=umlActor;verticalLabelPosition=bottom;verticalAlign=top;html=1;outlineConnect=0;" vertex="1" parent="1">
          <mxGeometry x="599" y="217" width="30" height="60" as="geometry" />
        </mxCell>
        <mxCell id="reQVT0hsvFGg_UGcOgHD-42" value="" style="swimlane;startSize=0;" vertex="1" parent="1">
          <mxGeometry x="569" y="186" width="90" height="121" as="geometry" />
        </mxCell>
        <mxCell id="reQVT0hsvFGg_UGcOgHD-43" value="&amp;lt;&amp;lt;service&amp;gt;&amp;gt;" style="text;html=1;align=center;verticalAlign=middle;resizable=0;points=[];autosize=1;strokeColor=none;fillColor=none;" vertex="1" parent="reQVT0hsvFGg_UGcOgHD-42">
          <mxGeometry width="90" height="30" as="geometry" />
        </mxCell>
        <mxCell id="reQVT0hsvFGg_UGcOgHD-44" style="edgeStyle=orthogonalEdgeStyle;rounded=0;orthogonalLoop=1;jettySize=auto;html=1;exitX=0.5;exitY=0;exitDx=0;exitDy=0;entryX=0.5;entryY=1;entryDx=0;entryDy=0;" edge="1" parent="1" source="dQ3kgNnosDi3D1WKe7WN-10" target="reQVT0hsvFGg_UGcOgHD-42">
          <mxGeometry relative="1" as="geometry">
            <Array as="points">
              <mxPoint x="350" y="360" />
              <mxPoint x="614" y="360" />
            </Array>
          </mxGeometry>
        </mxCell>
      </root>
    </mxGraphModel>
  </diagram>
</mxfile>
